<svg xmlns="http://www.w3.org/2000/svg" width="650" height="635" viewBox="0 0 650 635" version="1.1"><path d="M 324.302 37.990 C 299.285 41.530, 279.574 53.593, 266.423 73.411 L 262.500 79.321 262 97.616 L 261.500 115.911 257.750 119.748 L 254 123.584 254 145.824 C 254 162.757, 253.702 168.148, 252.750 168.421 C 230.582 174.766, 208.806 185.538, 188.564 200.171 C 187.065 201.255, 188.948 202.935, 209.803 219.110 C 239.515 242.153, 247.058 248.327, 246.723 249.331 C 246.410 250.269, 232.999 256.304, 206.500 267.434 C 198.250 270.899, 187.675 275.599, 183 277.879 C 156.300 290.901, 141.436 312.206, 135.914 345.370 C 131.205 373.648, 109.104 461.380, 95.071 507.500 L 91.116 520.500 98.273 527.741 C 102.981 532.503, 105.656 534.556, 106.087 533.741 C 106.849 532.301, 117.404 494.956, 126.647 461 C 137.007 422.938, 145.718 387.187, 151.012 361 C 153.736 347.525, 156.632 334.342, 157.449 331.703 C 160.166 322.919, 165.343 314.658, 173 306.890 C 181.419 298.349, 186.385 295.627, 219.500 281.402 C 261.789 263.236, 281.362 254.432, 281.694 253.428 C 281.889 252.839, 276.750 248.261, 270.274 243.255 C 263.798 238.249, 251.951 229.057, 243.948 222.827 C 235.944 216.597, 227.295 209.925, 224.729 208 C 222.162 206.075, 220.048 203.752, 220.031 202.839 C 220.010 201.722, 223.030 199.707, 229.250 196.689 C 245.696 188.707, 258.885 184.909, 275.331 183.419 C 281.368 182.872, 283.021 182.381, 283.097 181.112 C 283.420 175.767, 282.740 159.403, 282.175 158.910 C 281.804 158.586, 279.925 157.723, 278 156.993 C 272.008 154.719, 272 154.699, 272 142.165 L 272 130.576 276.205 126.291 L 280.411 122.006 280.824 103.253 C 281.310 81.207, 281.635 80.213, 291.201 71.556 C 298.047 65.361, 308.296 59.843, 317.116 57.605 C 325.667 55.434, 341.315 54.682, 351.500 55.951 C 365.417 57.686, 366.931 58.609, 360.250 61.284 C 356.037 62.971, 352.494 66.372, 353.408 67.851 C 353.740 68.389, 359.184 72.273, 365.506 76.483 L 377 84.137 377.005 93.818 C 377.008 99.143, 377.302 107.902, 377.658 113.283 C 378.292 122.849, 378.392 123.164, 382.185 127.473 L 386.065 131.880 385.782 143.661 L 385.500 155.441 380.516 157.290 C 377.775 158.306, 375.300 159.511, 375.016 159.966 C 374.732 160.422, 374.641 165.791, 374.812 171.897 L 375.125 183 378.931 183 C 385.863 183, 400.339 186.032, 412.017 189.931 C 425.215 194.336, 439 200.763, 439 202.509 C 439 203.667, 431.502 209.698, 394.500 238.305 C 384.600 245.959, 376.372 252.753, 376.217 253.403 C 376.061 254.054, 377.636 255.324, 379.717 256.226 C 384.920 258.482, 405.313 267.263, 418 272.711 C 423.775 275.191, 430.975 278.334, 434 279.696 C 437.025 281.058, 440.850 282.778, 442.500 283.519 C 444.150 284.259, 450 286.742, 455.500 289.036 C 471.193 295.581, 478.626 299.848, 484.631 305.759 C 496.805 317.739, 501.074 327.870, 506.013 356.498 C 512.527 394.250, 520.682 428.651, 540.033 500 C 543.985 514.575, 547.448 527.288, 547.726 528.250 C 548.005 529.212, 548.594 530, 549.036 530 C 550.269 530, 563 516.793, 563 515.513 C 563 514.893, 558.256 496.861, 552.458 475.442 C 536.206 415.405, 527.781 379.567, 522.604 348.448 C 518.829 325.754, 513.054 311.517, 502.374 298.568 C 493.076 287.297, 481.800 280.105, 458.020 270.280 C 453.334 268.344, 441.850 263.425, 432.500 259.349 C 423.150 255.273, 414.426 251.484, 413.114 250.929 L 410.728 249.919 413.081 247.414 C 414.375 246.036, 424.899 237.633, 436.467 228.740 C 464.117 207.485, 471 201.945, 471 200.948 C 471 199.625, 453.630 189.161, 439.469 181.954 C 432.301 178.306, 421.677 173.794, 415.860 171.927 L 405.282 168.532 404.641 156.609 C 404.288 150.051, 404 140.086, 404 134.464 L 404 124.241 400 120.119 L 396 115.998 396 104.150 C 396 97.633, 395.711 88.883, 395.358 84.706 C 394.729 77.267, 394.765 77.100, 397.108 76.646 C 398.424 76.392, 415.466 75.213, 434.981 74.028 C 454.495 72.842, 470.658 71.676, 470.897 71.436 C 471.834 70.499, 469.766 69.743, 458.641 66.952 C 447.917 64.262, 418.733 55.868, 385.500 45.916 C 377.800 43.610, 367.900 40.889, 363.500 39.870 C 354.215 37.717, 333.312 36.715, 324.302 37.990 M 310 304.487 C 299.825 309.625, 283.970 317.356, 274.766 321.665 C 265.562 325.974, 258.024 330.018, 258.016 330.651 C 257.996 332.084, 264.014 337.241, 290 358.060 C 301.275 367.094, 314.666 377.976, 319.757 382.242 C 324.849 386.509, 329.314 390, 329.680 390 C 330.046 390, 332.855 387.844, 335.922 385.210 C 341.084 380.777, 354.734 369.834, 373 355.485 C 387.142 344.376, 402 331.729, 402 330.799 C 402 329.965, 379.646 318.845, 355.500 307.666 C 350.550 305.375, 342.760 301.587, 338.190 299.250 C 333.619 296.913, 329.569 295.032, 329.190 295.072 C 328.810 295.111, 320.175 299.348, 310 304.487 M 127.754 315.656 C 126.439 317.770, 123.236 323.100, 120.636 327.500 C 111.433 343.072, 94.442 365.370, 74.866 387.562 C 61.808 402.366, 50.933 412.498, 40.784 419.316 C 35.523 422.850, 33.058 425.136, 33.037 426.500 C 32.954 432.037, 55.837 476.837, 58.049 475.469 C 58.572 475.146, 61.648 471.403, 64.885 467.151 C 84.338 441.596, 104.718 403.071, 116.587 369.417 C 122.810 351.771, 132.146 313.813, 130.635 312.302 C 130.365 312.032, 129.069 313.541, 127.754 315.656 M 528.017 316.046 C 527.993 321.033, 538.215 361.606, 542.369 373.012 C 554.428 406.121, 574.106 443.671, 590.731 465.295 C 594.035 469.593, 595.507 470.824, 596.428 470.060 C 600.073 467.035, 618 428.517, 618 423.711 C 618 422.967, 614.995 419.951, 611.322 417.007 C 600.050 407.974, 590.256 398.120, 578.022 383.500 C 560.940 363.087, 548.482 346.245, 539.558 331.500 C 535.231 324.350, 530.868 317.150, 529.862 315.500 L 528.034 312.500 528.017 316.046 M 205.500 348.557 C 198.350 351.593, 187.438 356.172, 181.250 358.734 C 175.063 361.296, 170 363.896, 170 364.512 C 170 365.128, 176.615 368.753, 184.700 372.566 C 203.707 381.532, 232.451 397.159, 251.849 409.073 C 283.939 428.782, 311.396 452.169, 323.045 469.716 C 326.045 474.235, 328.849 477.948, 329.275 477.966 C 329.701 477.985, 330.510 476.790, 331.072 475.311 C 336.883 460.026, 371.597 429.777, 409.500 406.969 C 431.290 393.858, 474.016 371.413, 485.750 366.912 C 489.527 365.464, 488.297 363.573, 481.750 360.762 C 453.962 348.835, 442.005 344, 440.299 344 C 436.595 344, 408.008 363.176, 387.500 379.416 C 366.313 396.195, 342.797 418.673, 333.309 431.214 C 331.764 433.256, 330.011 434.944, 329.414 434.964 C 328.816 434.984, 326.566 432.759, 324.414 430.021 C 318.294 422.235, 285.525 390.366, 274.522 381.500 C 257.969 368.160, 221.412 342.886, 218.864 343.019 C 218.664 343.030, 212.650 345.522, 205.500 348.557 M 183.029 412.273 C 185.521 414.598, 196.307 424.375, 206.998 434 C 271.835 492.368, 313.414 533.551, 325.786 551.655 C 328.503 555.631, 329.320 555.787, 330.769 552.607 C 332.511 548.784, 344.359 535.224, 363.500 515.147 C 372.975 505.209, 410.951 469.477, 430.081 452.500 C 452.991 432.169, 473.602 414.101, 476.365 411.928 C 483.056 406.665, 478.123 407.685, 458 415.725 C 412.816 433.778, 366.841 467.250, 333.500 506.366 L 328.500 512.232 325.018 507.379 C 315.051 493.489, 284.514 465.374, 262 449.359 C 237.765 432.120, 217.235 421.082, 191.794 411.613 C 178.869 406.802, 177.294 406.921, 183.029 412.273" stroke="none" fill="#071a28" fill-rule="evenodd"/><path d="M 300 15.604 C 275.323 17.736, 243.858 24.558, 220.279 32.888 C 175.772 48.610, 139.377 71.116, 106.141 103.469 C 49.385 158.718, 16.672 231.002, 13.355 308.500 C 12.308 332.954, 15.774 368.021, 21.559 391.500 C 24.630 403.965, 32.395 427.690, 32.804 425.860 C 32.971 425.112, 36.571 422.167, 40.804 419.316 C 50.951 412.482, 61.835 402.336, 74.866 387.562 C 95.854 363.768, 111.438 343.085, 122.582 324.234 C 126.245 318.038, 129.672 312.703, 130.198 312.378 C 132.778 310.783, 123.433 350.015, 116.658 369.221 C 104.280 404.307, 81.231 447.208, 62.148 470.677 L 57.125 476.854 64.813 487.838 C 75.068 502.491, 89.978 520.429, 91.012 519.359 C 92.155 518.177, 98.363 497.064, 107.877 462 C 122.197 409.222, 132.232 367.477, 135.914 345.370 C 141.436 312.206, 156.300 290.901, 183 277.879 C 187.675 275.599, 198.250 270.899, 206.500 267.434 C 232.999 256.304, 246.410 250.269, 246.723 249.331 C 247.058 248.327, 239.515 242.153, 209.803 219.110 C 188.948 202.935, 187.065 201.255, 188.564 200.171 C 208.806 185.538, 230.582 174.766, 252.750 168.421 C 253.702 168.148, 254 162.757, 254 145.824 L 254 123.584 257.750 119.748 L 261.500 115.911 262 97.616 L 262.500 79.321 266.423 73.411 C 277.889 56.132, 293.365 45.351, 314.500 39.919 C 322.056 37.977, 325.987 37.611, 339 37.640 C 356.160 37.677, 360.623 38.472, 385.500 45.918 C 418.951 55.931, 447.933 64.266, 458.641 66.952 C 469.766 69.743, 471.834 70.499, 470.897 71.436 C 470.658 71.676, 454.495 72.842, 434.981 74.028 C 415.466 75.213, 398.424 76.392, 397.108 76.646 C 394.765 77.100, 394.729 77.267, 395.358 84.706 C 395.711 88.883, 396 97.633, 396 104.150 L 396 115.998 400 120.119 L 404 124.241 404 134.464 C 404 140.086, 404.288 150.051, 404.641 156.609 L 405.282 168.532 415.860 171.927 C 421.677 173.794, 432.301 178.306, 439.469 181.954 C 453.630 189.161, 471 199.625, 471 200.948 C 471 201.945, 464.117 207.485, 436.467 228.740 C 424.899 237.633, 414.375 246.036, 413.081 247.414 L 410.728 249.919 413.114 250.929 C 414.426 251.484, 423.150 255.273, 432.500 259.349 C 441.850 263.425, 453.334 268.344, 458.020 270.280 C 481.800 280.105, 493.076 287.297, 502.374 298.568 C 513.054 311.517, 518.829 325.754, 522.604 348.448 C 527.848 379.968, 533.954 406, 551.319 470.866 L 563.464 516.232 567.247 511.866 C 575.180 502.709, 598.890 468.714, 596.172 470.394 C 595.605 470.744, 593.146 468.437, 590.708 465.266 C 574.104 443.669, 554.425 406.110, 542.365 373 C 537.969 360.933, 527.769 319.985, 528.185 316.076 C 528.462 313.483, 529.601 314.962, 537.500 328.174 C 556.639 360.185, 588.983 399.106, 611.322 417.007 C 614.995 419.951, 618.034 423.066, 618.076 423.929 C 618.213 426.772, 625.023 405.769, 628.456 391.914 C 640.643 342.730, 639.427 286.020, 625.133 237 C 613.447 196.922, 591.185 156.027, 563.925 124.558 C 552.666 111.561, 532.803 92.112, 522 83.507 C 497.689 64.141, 463.124 44.691, 434.500 34.270 C 417.026 27.908, 388.414 20.723, 367.500 17.445 C 357.894 15.940, 310.935 14.659, 300 15.604 M 335.776 55.733 C 338.128 55.945, 341.728 55.942, 343.776 55.727 C 345.824 55.512, 343.900 55.339, 339.500 55.343 C 335.100 55.346, 333.424 55.522, 335.776 55.733 M 377.310 115.500 C 377.315 118.800, 377.502 120.029, 377.725 118.232 C 377.947 116.435, 377.943 113.735, 377.715 112.232 C 377.486 110.729, 377.304 112.200, 377.310 115.500 M 283.349 169 C 283.349 173.675, 283.522 175.588, 283.732 173.250 C 283.943 170.912, 283.943 167.088, 283.732 164.750 C 283.522 162.412, 283.349 164.325, 283.349 169 M 374.370 172 C 374.370 177.775, 374.535 180.137, 374.737 177.250 C 374.939 174.363, 374.939 169.637, 374.737 166.750 C 374.535 163.863, 374.370 166.225, 374.370 172 M 380.946 497.750 L 377.500 501.500 381.250 498.054 C 383.313 496.158, 385 494.471, 385 494.304 C 385 493.540, 384.154 494.260, 380.946 497.750" stroke="none" fill="#d92429" fill-rule="evenodd"/><path d="M 0 317.502 L 0 635.003 325.250 634.752 L 650.500 634.500 650.752 317.250 L 651.003 0 325.502 0 L 0 0 0 317.502 M 0.494 318 C 0.494 492.625, 0.609 564.063, 0.750 476.750 C 0.891 389.438, 0.891 246.563, 0.750 159.250 C 0.609 71.938, 0.494 143.375, 0.494 318 M 300 15.604 C 266.380 18.509, 227.448 28.532, 196 42.378 C 140.019 67.025, 89.598 111.281, 57.814 163.667 C 19.483 226.843, 5.794 295.683, 17.082 368.500 C 18.928 380.406, 23.772 401.933, 25.971 408 C 26.469 409.375, 28.520 415.225, 30.528 421 C 35.662 435.765, 36.477 437.648, 45.121 454.724 C 53.906 472.077, 64.608 488.658, 77.100 504.268 C 87.729 517.551, 104.943 535.489, 105.964 534.346 C 106.691 533.533, 119.975 486.877, 129.553 451.500 C 137.713 421.361, 147.613 380.014, 151.461 360 C 157.754 327.278, 161.516 318.312, 174.202 305.801 C 181.365 298.736, 189.064 294.389, 208.255 286.572 C 213.070 284.610, 218.920 282.124, 221.255 281.046 C 227.358 278.229, 258.627 264.618, 271.250 259.284 C 277.225 256.759, 282 254.152, 282 253.415 C 282 252.686, 278.513 249.409, 274.250 246.133 C 269.988 242.856, 259.975 235.056, 252 228.799 C 244.025 222.542, 233.675 214.467, 229 210.853 C 224.325 207.240, 220.500 203.691, 220.500 202.966 C 220.500 201.111, 232.748 194.693, 244 190.652 C 254.716 186.803, 261.482 185.243, 274.500 183.621 L 283.500 182.500 283.793 173 C 284.196 159.949, 283.952 159.311, 277.463 156.441 L 272 154.025 272 142.870 L 272 131.716 276.500 126.448 L 281 121.181 281 103.492 C 281 83.949, 281.347 82.460, 287.592 75.163 C 292.330 69.628, 303.671 62.284, 312.324 59.147 C 319.096 56.691, 320.571 56.544, 338.500 56.522 C 356.632 56.501, 363 57.098, 363 58.820 C 363 59.250, 360.960 60.592, 358.468 61.804 C 353.523 64.206, 352.131 66.248, 353.948 68.437 C 354.592 69.214, 360.017 73.129, 366.002 77.137 L 376.885 84.425 377.193 103.582 L 377.500 122.739 381.783 127.383 L 386.065 132.026 385.783 143.227 C 385.470 155.618, 386.078 154.517, 377.500 158.229 L 374.500 159.527 374.500 171.013 L 374.500 182.500 380.500 183.297 C 393.259 184.993, 402.984 187.072, 412.377 190.113 C 423.558 193.732, 438.500 200.999, 438.500 202.817 C 438.500 203.492, 432.817 208.422, 425.871 213.772 C 386.269 244.277, 376 252.457, 376 253.500 C 376 254.137, 378.137 255.625, 380.750 256.806 C 389.933 260.958, 450.053 287, 450.454 287 C 451.057 287, 463.559 292.675, 470.982 296.318 C 478.978 300.244, 489.981 310.413, 494.353 317.920 C 500.109 327.801, 502.185 334.936, 506.015 358 C 508.954 375.699, 511.314 386.994, 518.027 415.500 C 523.976 440.760, 527.209 453.350, 537.540 491.500 C 540.668 503.050, 544.232 516.219, 545.461 520.764 C 546.689 525.309, 547.974 529.308, 548.316 529.649 C 550.268 531.602, 562.593 518.442, 577.500 498.488 C 603.129 464.182, 617.942 433.403, 628.025 393.500 C 640.674 343.443, 639.625 286.701, 625.133 237 C 613.447 196.922, 591.185 156.027, 563.925 124.558 C 552.666 111.561, 532.803 92.112, 522 83.507 C 497.689 64.141, 463.124 44.691, 434.500 34.270 C 417.026 27.908, 388.414 20.723, 367.500 17.445 C 357.894 15.940, 310.935 14.659, 300 15.604 M 314 302.302 C 306.025 306.261, 289.886 314.117, 278.135 319.759 C 258.944 328.974, 256.908 330.184, 258.128 331.654 C 259.725 333.579, 277.871 348.734, 290 358.273 C 297.979 364.549, 302.617 368.326, 321.280 383.750 C 325.440 387.188, 329.216 389.989, 329.671 389.975 C 330.127 389.961, 333.200 387.677, 336.500 384.901 C 339.800 382.124, 350.600 373.474, 360.500 365.678 C 386.952 344.849, 402 332.144, 402 330.640 C 402 329.910, 397.163 327.041, 391.250 324.264 C 385.337 321.488, 377.125 317.637, 373 315.707 C 368.875 313.777, 357.448 308.328, 347.606 303.599 C 337.764 298.870, 329.439 295.023, 329.106 295.052 C 328.773 295.080, 321.975 298.342, 314 302.302 M 201 350.060 C 168.090 364.036, 167.636 364.281, 171.115 366.185 C 171.877 366.602, 181.500 371.369, 192.500 376.779 C 203.500 382.189, 215.200 388.120, 218.500 389.958 C 227.733 395.101, 241.986 403.276, 245.598 405.500 C 247.385 406.600, 251.964 409.393, 255.773 411.706 C 285.287 429.625, 315.573 456.471, 325.625 473.624 C 327.036 476.031, 328.732 478, 329.394 478 C 330.056 478, 331.165 476.432, 331.859 474.515 C 335.908 463.317, 362.818 437.864, 389.398 420.092 C 412.471 404.664, 442.654 387.697, 472.280 373.500 C 481.463 369.100, 488.981 365.174, 488.988 364.776 C 489.006 363.689, 484.859 361.728, 462.710 352.351 C 451.594 347.645, 441.483 343.785, 440.239 343.772 C 436.874 343.739, 404.591 365.346, 387 379.407 C 368.369 394.298, 346.382 415.180, 333.730 430 L 329.034 435.500 326.267 432 C 318.116 421.690, 294.953 398.641, 279.390 385.355 C 261.505 370.086, 222.496 342.931, 218.585 343.027 C 217.988 343.041, 210.075 346.206, 201 350.060 M 179.177 408.293 C 179.355 409.004, 183.775 413.381, 189 418.019 C 208.492 435.323, 240.698 464.781, 265.965 488.420 C 284.969 506.198, 309.744 531.894, 318.899 543.320 C 324.046 549.744, 328.605 555, 329.030 555 C 329.455 555, 330.677 553.518, 331.746 551.706 C 335.564 545.236, 352.151 526.738, 369.594 509.500 C 399.165 480.277, 421.376 459.972, 472.358 415.555 C 476.742 411.735, 479.813 408.438, 479.183 408.228 C 477.852 407.784, 464.370 412.683, 448.258 419.465 C 425.236 429.155, 397.192 446.985, 371.614 468.196 C 362.155 476.040, 341.058 496.944, 334.723 504.750 C 331.933 508.188, 329.358 511, 329 511 C 328.642 511, 326.065 508.188, 323.273 504.750 C 320.481 501.313, 312.190 492.553, 304.848 485.285 C 269.434 450.223, 227.900 423.567, 186.575 409.378 C 178.467 406.594, 178.763 406.637, 179.177 408.293" stroke="none" fill="#eaefee" fill-rule="evenodd"/></svg>